<mxfile host="app.diagrams.net" modified="2023-01-30T13:31:22.994Z" agent="5.0 (Windows NT 10.0; Win64; x64) AppleWebKit/537.36 (KHTML, like Gecko) Chrome/109.0.0.0 Safari/537.36" etag="rgB3Vpv-tt-U3G2YQy0m" version="20.8.13" type="github">
  <diagram name="Page-1" id="87-kZaRVxhakYZH3iues">
    <mxGraphModel dx="874" dy="447" grid="1" gridSize="10" guides="1" tooltips="1" connect="1" arrows="1" fold="1" page="1" pageScale="1" pageWidth="850" pageHeight="1100" math="0" shadow="0">
      <root>
        <mxCell id="0" />
        <mxCell id="1" parent="0" />
        <mxCell id="UEz6c2Cf0HH70ggKVtqU-1" value="&lt;h3&gt;&lt;b&gt;Garage PC&lt;/b&gt;&lt;/h3&gt;" style="shape=mxgraph.signs.tech.computer;html=1;pointerEvents=1;fillColor=#000000;strokeColor=none;verticalLabelPosition=bottom;verticalAlign=top;align=center;" vertex="1" parent="1">
          <mxGeometry x="160" y="320" width="120" height="118" as="geometry" />
        </mxCell>
        <mxCell id="UEz6c2Cf0HH70ggKVtqU-2" value="&lt;h3&gt;&lt;font color=&quot;#000000&quot;&gt;Spectrum Modem&lt;/font&gt;&lt;/h3&gt;" style="fontColor=#0066CC;verticalAlign=top;verticalLabelPosition=bottom;labelPosition=center;align=center;html=1;outlineConnect=0;fillColor=#000000;strokeColor=#6881B3;gradientColor=none;gradientDirection=north;strokeWidth=2;shape=mxgraph.networks.router;" vertex="1" parent="1">
          <mxGeometry x="370" y="220" width="100" height="30" as="geometry" />
        </mxCell>
        <mxCell id="UEz6c2Cf0HH70ggKVtqU-3" value="" style="sketch=0;pointerEvents=1;shadow=0;dashed=0;html=1;strokeColor=none;fillColor=#434445;aspect=fixed;labelPosition=center;verticalLabelPosition=bottom;verticalAlign=top;align=center;outlineConnect=0;shape=mxgraph.vvd.virtual_machine;fontColor=#000000;" vertex="1" parent="1">
          <mxGeometry x="580" y="110" width="50" height="50" as="geometry" />
        </mxCell>
      </root>
    </mxGraphModel>
  </diagram>
</mxfile>
